<!-- <svg width="64" height="64" viewBox="0 0 64 64" fill="none" xmlns="http://www.w3.org/2000/svg">
  <path d="M14.0701 18.5V45.07L39.7101 58.71L43.1401 56.71V7.42996L39.7101 5.20996L14.0701 18.5Z" fill="#78B9EB" ></path>
  <path d="M42.41 4.86989C41.8407 4.47775 41.1845 4.23004 40.4981 4.14816C39.8116 4.06627 39.1156 4.15267 38.47 4.39989L38.33 4.46989L13.68 17.7499H7C5.87364 17.7525 4.79417 18.2011 3.99771 18.9976C3.20126 19.7941 2.75264 20.8735 2.75 21.9999V41.9999C2.75264 43.1263 3.20126 44.2057 3.99771 45.0022C4.79417 45.7986 5.87364 46.2473 7 46.2499H13.68L38.33 59.5299L38.47 59.5999C38.9588 59.7852 39.4772 59.8801 40 59.8799C41.1272 59.8799 42.2082 59.4321 43.0052 58.6351C43.8022 57.8381 44.25 56.7571 44.25 55.6299V8.36989C44.2499 7.68106 44.0824 7.00258 43.7618 6.39287C43.4413 5.78316 42.9774 5.2605 42.41 4.86989V4.86989ZM5.25 41.9999V21.9999C5.25263 21.5366 5.43784 21.093 5.76546 20.7654C6.09309 20.4377 6.53668 20.2525 7 20.2499H12.75V43.7499H7C6.53668 43.7473 6.09309 43.562 5.76546 43.2344C5.43784 42.9068 5.25263 42.4632 5.25 41.9999V41.9999ZM41.75 55.6299C41.7481 55.9072 41.6808 56.1801 41.5534 56.4264C41.4261 56.6727 41.2423 56.8855 41.0171 57.0473C40.7919 57.2091 40.5317 57.3154 40.2576 57.3576C39.9836 57.3997 39.7034 57.3766 39.44 57.2899L15.25 44.2899V19.7499L39.44 6.74989C39.7034 6.66323 39.9836 6.64004 40.2576 6.6822C40.5317 6.72436 40.7919 6.83068 41.0171 6.9925C41.2423 7.15432 41.4261 7.36705 41.5534 7.61337C41.6808 7.85968 41.7481 8.13261 41.75 8.40989V55.6299Z" fill="#006DF0" stroke="#006DF0" strokeWidth="0.5"></path>
  <path d="M49.39 15.6099C49.0731 15.5064 48.728 15.5332 48.4308 15.6841C48.1335 15.8351 47.9084 16.098 47.805 16.4149C47.7016 16.7318 47.7283 17.0769 47.8792 17.3741C48.0302 17.6714 48.2931 17.8964 48.61 17.9999C51.5519 18.9757 54.1117 20.8534 55.9259 23.3665C57.7401 25.8796 58.7165 28.9004 58.7165 31.9999C58.7165 35.0994 57.7401 38.1201 55.9259 40.6333C54.1117 43.1464 51.5519 45.0241 48.61 45.9999C48.3172 46.0846 48.0655 46.2734 47.9022 46.5307C47.7389 46.788 47.6752 47.0961 47.7231 47.3971C47.771 47.6981 47.9272 47.9712 48.1624 48.1651C48.3975 48.359 48.6954 48.4602 49 48.4499C49.1323 48.4495 49.2637 48.4293 49.39 48.3899C52.8381 47.2516 55.8393 45.0549 57.9667 42.1122C60.0942 39.1696 61.2393 35.631 61.2393 31.9999C61.2393 28.3688 60.0942 24.8302 57.9667 21.8875C55.8393 18.9449 52.8381 16.7482 49.39 15.6099V15.6099Z" fill="#006DF0" stroke="#006DF0" strokeWidth="0.5"></path>
  <path d="M48.4301 40.69C48.1818 40.8186 47.9837 41.0268 47.8676 41.2812C47.7516 41.5356 47.7242 41.8216 47.7898 42.0935C47.8555 42.3653 48.0104 42.6073 48.2298 42.7807C48.4492 42.9541 48.7204 43.0489 49.0001 43.05C49.1989 43.0525 49.3951 43.0043 49.5701 42.91C51.5805 41.8834 53.2682 40.3213 54.4469 38.3961C55.6255 36.4709 56.2492 34.2574 56.2492 32C56.2492 29.7426 55.6255 27.5292 54.4469 25.6039C53.2682 23.6787 51.5805 22.1166 49.5701 21.09C49.2785 20.9615 48.9488 20.9492 48.6484 21.0557C48.348 21.1622 48.0997 21.3794 47.9541 21.6629C47.8085 21.9464 47.7767 22.2748 47.8652 22.5809C47.9537 22.8871 48.1557 23.1479 48.4301 23.31C50.0307 24.1284 51.3741 25.3729 52.3123 26.9063C53.2505 28.4397 53.747 30.2024 53.747 32C53.747 33.7976 53.2505 35.5604 52.3123 37.0938C51.3741 38.6272 50.0307 39.8717 48.4301 40.69V40.69Z" fill="#006DF0" stroke="#006DF0" strokeWidth="0.5"></path>
</svg> -->
<svg xmlns="http://www.w3.org/2000/svg" fill="none" viewBox="0 0 24 24" stroke-width="1.5" stroke="#72B2FF" class="w-6 h-6">
  <path stroke-linecap="round" stroke-linejoin="round" d="M19.114 5.636a9 9 0 0 1 0 12.728M16.463 8.288a5.25 5.25 0 0 1 0 7.424M6.75 8.25l4.72-4.72a.75.75 0 0 1 1.28.53v15.88a.75.75 0 0 1-1.28.53l-4.72-4.72H4.51c-.88 0-1.704-.507-1.938-1.354A9.009 9.009 0 0 1 2.25 12c0-.83.112-1.633.322-2.396C2.806 8.756 3.63 8.25 4.51 8.25H6.75Z" />
</svg>
